<?xml version="1.0" ?><!DOCTYPE svg  PUBLIC '-//W3C//DTD SVG 1.1//EN'  'http://www.w3.org/Graphics/SVG/1.1/DTD/svg11.dtd'><svg enable-background="new 0 0 200 200" height="200px" id="Слой_1" version="1.1" viewBox="0 0 200 200" width="200px" xml:space="preserve" xmlns="http://www.w3.org/2000/svg" xmlns:xlink="http://www.w3.org/1999/xlink"><g><path d="M195.626,134.303c-0.267-0.037-0.533-0.073-0.8-0.108c0.146,2.545-0.441,5.101,0.352,8.203   c0.251-0.905,0.433-1.257,0.435-1.608C195.643,138.626,195.626,136.463,195.626,134.303z" fill="#EA622F"/><path d="M191.452,42.411c0.391-1.236,0.285-2.495-0.269-3.865c-0.244,1.217-0.508,2.433-0.713,3.657   c-0.027,0.165,0.226,0.507,0.389,0.536C191.041,42.771,191.399,42.579,191.452,42.411z" fill="#EA622F"/><path d="M5.024,59.124c-0.614,0.2-0.607,0.709-0.638,1.189c-0.032,0.478-0.008,0.961-0.008,1.441   c0.172,0.032,0.346,0.067,0.519,0.098c0.167-0.445,0.353-0.886,0.494-1.341C5.664,59.624,5.483,58.973,5.024,59.124z" fill="#EA622F"/><path d="M8.254,78.159c0.005-0.008,0.008-0.016,0.013-0.025c-0.012,0-0.024,0.002-0.037,0.002L8.254,78.159z" fill="#EA622F"/><path d="M35.685,17.75c0.435,0,0.468-0.4,0.477-0.741c-0.075-0.382-0.215-0.727-0.675-0.516   c-0.184,0.083-0.374,0.35-0.394,0.549C35.056,17.421,35.304,17.749,35.685,17.75z" fill="#EA622F"/><path d="M147.505,15.036c0.474,0.201,0.978,0.232,1.428-0.099c0.048-0.035,0.021-0.176,0.027-0.272   c-0.435-0.364-0.931-0.325-1.418-0.166C147.167,14.623,147.145,14.883,147.505,15.036z" fill="#EA622F"/><path d="M188.635,23.35c0.05,0.199,0.245,0.361,0.374,0.538c0.108-0.199,0.273-0.387,0.317-0.601   c0.066-0.339,0.053-0.696,0.076-1.048c0.535-0.918,0.894-1.889,0.892-2.968c0.226-0.07,0.46-0.126,0.681-0.216   c0.533-0.217,0.701-0.69,0.474-1.135c-0.11-0.221-0.603-0.331-0.927-0.339c-0.526-0.016-0.855,0.341-1.039,0.824l-0.064,0.058   c-0.321,0.144-0.595,0.352-0.829,0.614c-1.26,1.477-1.26,1.477-0.078,3.229C188.547,22.653,188.545,23.014,188.635,23.35z" fill="#EA622F"/><path d="M194.197,158.961c-0.021,0.087,0.046,0.228,0.117,0.299c0.036,0.034,0.174-0.034,0.264-0.058   c0.021-0.112,0.099-0.26,0.053-0.336C194.461,158.584,194.284,158.621,194.197,158.961z" fill="#EA622F"/><path d="M156.701,14.991c0.085,0.022,0.2-0.069,0.302-0.108c-0.021-0.09-0.015-0.222-0.069-0.26   c-0.085-0.058-0.246-0.102-0.319-0.058C156.343,14.733,156.375,14.909,156.701,14.991z" fill="#EA622F"/><path d="M168.962,15.821c0.204-0.044,0.397-0.151,0.595-0.232c-0.078-0.085-0.156-0.171-0.229-0.251   c-0.219,0.091-0.416,0.174-0.611,0.258C168.799,15.675,168.899,15.835,168.962,15.821z" fill="#EA622F"/><path d="M190.314,50.022c-0.066,0.311,0.056,0.476,0.297,0.411c0.066-0.018,0.09-0.192,0.133-0.294   c-0.06-0.094-0.117-0.188-0.177-0.285C190.48,49.91,190.331,49.953,190.314,50.022z" fill="#EA622F"/><path d="M8.254,78.16L8.23,78.136c-0.016,0.018-0.032,0.035-0.048,0.053C8.208,78.18,8.229,78.169,8.254,78.16z" fill="#EA622F"/><path d="M7.907,78.481C8,78.384,8.09,78.286,8.182,78.188c-0.076,0.021-0.155,0.039-0.214,0.084   C7.922,78.307,7.926,78.409,7.907,78.481z" fill="#EA622F"/><path d="M191.608,137.203c0.313-1.8,0.354-3.595-0.011-5.395c0.401-1.634,0.273-3.323-0.139-4.863   c-0.333-1.246-0.365-2.474-0.549-3.705c-0.003-0.524-0.005-1.049-0.007-1.57c0.032-0.655,0.058-1.306-0.761-1.54   c-1.338-1.314-0.798-2.388,0.365-3.473c0.391-0.365-0.032-0.94-0.686-0.901c-0.362,0.021-0.715,0.202-1.075,0.313   c-0.005,0.005-0.009,0.01-0.017,0.014c0.008-0.004,0.012-0.009,0.017-0.016c0.099-0.642-0.386-1.321,0.63-1.857   c1.156-0.604,1.262-1.7,0.275-2.163c-1.124-0.526-0.929-0.936-0.314-1.535c0.73-0.712,0.425-1.316-0.044-1.958   c-0.002,0-0.002,0.002-0.002,0.002c0.019-0.556,0.034-1.11,0.053-1.666c-0.007-1.016-0.012-2.032-0.014-3.048   c-0.003,0.002-0.003,0.005-0.005,0.005c0.002,0,0.002-0.003,0.002-0.005c-0.817-2.077-0.8-2.077-0.737-4.64   c0.044-1.786,0.053-3.575,0.037-5.361c-0.01-0.884,0.027-1.809-0.745-2.477c-0.156-3.8-0.846-7.566-0.747-11.381   c0.044-1.684-0.236-3.3-0.832-4.868c0.905-0.907,1.402-1.909,0.735-3.18c0.154-0.182,0.187-0.38,0.097-0.599   c0.689-1.117,0.768-2.207-0.138-3.255c0.243-1.066,0.489-2.135,0.733-3.203c0-0.001,0-0.001,0-0.001   c-0.014-1.557-0.032-3.113-0.046-4.669c0,0-0.003,0-0.003-0.001c0.023-1.769,0.046-3.536,0.069-5.305   c0.25-1.191-0.207-2.214-0.761-3.212c0,0,0,0,0-0.001c-0.007-1.04-0.012-2.08-0.019-3.122c0.184-1.618,0.211-3.241-0.294-4.801   c-0.412-1.269-0.159-2.449,0.221-3.645c0.206-1.506,0.039-3.048,0.763-4.508c0.379-0.766,0.338-1.76-0.016-2.623   c-0.069-0.174-0.37-0.345-0.568-0.35c-0.211-0.004-0.591,0.161-0.616,0.301c-0.184,1.036-0.299,2.083-0.45,3.234   c-0.779-0.746-0.287-1.924-1.243-2.386c0.044-0.501,0.087-1.002,0.131-1.501c-0.131,0.071-0.273,0.103-0.423,0.093   c0.002-0.104,0.007-0.208,0.012-0.312c0.138,0.071,0.273,0.144,0.411,0.217c0.929-2.005,0.596-4.127,0.572-6.22   c1.271-1.956,0.733-4.133,0.756-6.243c-0.26-1.341-1.896-0.369-2.39-1.47c-0.623-1.392-1.86-1.24-2.947-0.722   c-1.79,0.854-3.583,1.308-5.537,0.72c0,0,0,0,0,0.001c0-0.001,0-0.001-0.002-0.001c-0.402-0.58-0.896-0.944-1.618-0.58   c-1.151,0.581-2.294,1.186-3.438,1.783c-0.805,0.42-1.487,0.232-2.097-0.392h0.003c0.071-0.372,0.202-0.745,0.192-1.113   c-0.009-0.351-0.064-0.825-0.289-1.001c-0.168-0.132-0.781,0.008-0.952,0.219c-0.712,0.899-1.726,0.954-2.71,1.131   c-0.238-0.049-0.479-0.101-0.717-0.154c-0.818-0.9-1.91-0.776-2.896-0.604c-3.174,0.551-6.38,0.518-9.577,0.666   c-2.793,0.01-5.551-0.019-8.213-1.167c-1-0.429-2.241-0.305-3.372-0.43c-0.51-0.778-1.328-0.692-2.08-0.697   c-3.854-0.03-7.709-0.025-11.563-0.048c-5.02-0.028-10.04-0.14-15.058-0.064c-1.547,0.022-2.999-0.763-4.574-0.292   c-1.914,0.574-3.806,0.245-5.657-0.38l0.001,0.001c-0.001,0-0.001-0.001-0.002-0.001c-0.441-0.046-0.886-0.091-1.329-0.137   c-0.109-0.037-0.215-0.061-0.315-0.075c-2.888-0.754-5.836-0.424-8.762-0.415c-3.277,0.008-6.49,0.998-9.792,0.64   c-3.254-1.193-6.627-0.826-9.951-0.601c-3.988,0.269-7.968,0.501-11.968,0.496c-2.041-0.003-4.136-0.101-6.058,0.861   c-1.913-0.045-3.799-0.34-5.723,0.262c-3.659,1.144-7.156,2.889-11.094,3.056c-0.617,0.025-1.217,0.4-1.825,0.615   c-0.235-0.12-0.481-0.156-0.741-0.119c-0.898-0.994-0.358-2.506-1.197-3.52c-1.974,0.669-1.991,0.663-3.15,1.984   c-0.541,0.617-1.024,0.67-1.568,0.124c-0.913-0.914-2.159-0.646-3.242-0.947c-0.52-0.145-1.116,0.037-1.385,0.455   c-1.237,1.933-3.217,2.661-5.22,3.378l0.001,0.001c-0.001,0-0.001,0-0.001,0c-0.58,0.101-1.149,0.224-1.485,0.787l0.162,0.212   c-0.001,0-0.001,0-0.001,0c-0.001,0.002-0.002,0.003-0.003,0.005c-0.053-0.072-0.106-0.146-0.158-0.217   c-1.707,0.409-2.813,1.399-3.076,3.195c0,0.001,0,0.001,0,0.002c-1.424,1.002-2.72,2.102-3.004,3.967v0.001   c-0.042,0.216-0.041,0.432,0.005,0.648c-0.078,1.401-1.208,2.613-0.818,4.071c0.326,1.222-0.042,2.088-0.739,3.12   c-0.931,1.376-1.457,3.012-0.029,4.525h0.001c-0.004,0.265-0.008,0.53-0.01,0.794c0,0,0,0,0-0.001   c-0.254,0.273-0.507,0.545-0.76,0.816h0.001c0,0.001-0.001,0.001-0.001,0.001c-0.216,0.962-0.571,1.92-0.599,2.889   c-0.021,0.645,0.224,1.594,1.346,0.954c0.461-0.228,0.922-0.457,1.384-0.684v-0.001c0.089,1.278,0.183,2.555,0.272,3.832   c0.001-0.002,0.002-0.006,0.004-0.008c-0.002,0.003-0.002,0.006-0.003,0.009c-0.146,0.229-0.179,0.473-0.1,0.732   c-0.04,0.772-0.082,1.545-0.121,2.318c0,0,0.001,0.001,0.001,0.002c-0.001-0.001-0.001-0.001-0.001-0.001   c-0.939,0.568-1.543,1.23-1.116,2.478c0.134,0.393-0.204,0.947-0.325,1.426c-0.001,0-0.001,0-0.001,0   c-0.013,0.248-0.022,0.498-0.032,0.745c-0.001,0.001-0.002,0.003-0.002,0.004c-0.391,0.247-0.617,0.59-0.625,1.06c0,0,0,0,0,0.001   c0.016,0.186-0.022,0.363-0.117,0.524c-1.272,1.293-0.961,2.889-0.469,4.263c0.569,1.583,0.354,2.964-0.213,4.406   c-0.001,0-0.001,0-0.002,0c0.229,0.737,0.459,1.474,0.689,2.209c0.26,0.523,0.52,1.043,0.778,1.564   c-0.448,0.103-0.669,0.392-0.685,0.846c-0.214,0.56-0.436,1.115-0.637,1.679c-0.216,0.603-0.23,1.173,0.353,1.605   c0.34,0.19,0.732,0.236,1.083,0.396c0.007,0.003,0.014,0.005,0.021,0.008h0.001c0.201,0.054,0.4,0.111,0.599,0.172   c-0.237,0.498-0.476,0.995-0.712,1.491c0.999-0.003,2.005-0.759,2.997,0.031c0.137,0.254,0.108,0.489-0.086,0.704   c-3.397,0.834-3.854,1.814-2.196,4.731c0.402,1.855,0.67,3.781,0.309,5.608c-0.503,2.538-0.499,5.045-0.326,7.583   c-0.156,0.623-0.436,1.241-0.453,1.868c-0.217,7.876-0.75,15.747-0.479,23.635c0.334,9.695,1.147,19.344,2.593,28.938   c0,0,0,0.002,0.001,0.002c-0.001,0-0.001-0.002-0.002-0.002c0.16,4.697,0.678,9.354,1.527,13.977   c-0.262,1.905,0.576,3.634,0.87,5.45c-0.315,1.611,0.847,2.994,0.702,4.58c0.09,1.611,0.779,2.929,2.008,3.954   c0.17,0.143,0.508,0.239,0.689,0.165c0.169-0.068,0.292-0.384,0.333-0.608c0.176-0.934-0.355-1.72-0.562-2.577   c-0.215-0.887-0.269-1.783,0.617-2.413c0.716,0.99,0.475,2.408,1.466,3.275c-0.009,2.121,1.446,3.429,2.697,4.845   c0.283,0.317,0.655,0.389,1.015,0.17c0.638-0.388,1.483-0.491,1.816-1.305c0.787-0.226,1.779,0.478,2.397-0.524   c0.237-0.097,0.475-0.195,0.711-0.292c0.51,0.019,1.021,0.039,1.529,0.058h0.001c0.607,0.45,1.263,0.844,1.802,1.363   c0.389,0.374,0.746,0.749,1.269,0.462c1.729-0.952,3.489,0.192,5.219-0.136c0.001,0,0.001,0,0.002,0   c0.345,0.156,0.683,0.42,1.039,0.45c4.866,0.391,9.734,0.786,14.607,1.099c2.046,0.129,4.105,0.049,6.158,0.085   c3.973,0.066,7.945,0.163,11.905-0.289v0.002c2.584,0.016,5.205,0.311,7.742-0.027c2.163-0.285,4.319,0.133,6.479-0.409   c2.282-0.57,4.624,0.239,6.939,0.294c6.471,0.156,12.949,0.301,19.419,0.182c3.078-0.055,6.098-0.262,9.205,0.094   c5.88,0.669,11.838,0.48,17.725,1.271c1.661,0.223,3.357,0.145,4.872,1.066c0.458,0.278,1.002,0.037,1.467-0.218   c2.829,0.057,5.663-0.224,8.488,0.284c1.149,0.207,2.28-0.172,3.391-0.569c1.07-0.384,2.236-0.927,3.291-0.805   c0.949,0.112,1.363-0.158,1.929-0.724c0.593-0.596,1.732-0.694,1.639-1.893c0.469-0.537,0.938-1.073,1.409-1.608   c0.574,0.14,1.145,0.299,1.724,0.418c0.99,0.209,1.041,0.147,1.289-1.395h-0.002c0.326-0.504,0.581-1.083,0.997-1.497   c0.927-0.919,1.657-0.864,3.085,0.076c-0.048,0.384-0.147,0.771-0.136,1.151c0.053,1.681,0.285,1.766,1.781,1.336   c1.297-0.37,1.536-1.205,1.446-2.34c0.915-2.092,2.454-3.744,3.866-5.489c0.751-0.246,0.949-0.791,0.822-1.508   c0.331,0.191,0.72,0.319,0.979,0.579c3.107,3.107,3.68,2.487,6.293,0.224c0.188-0.161,0.497-0.193,0.667-0.368   c0.82-0.844,1.632-1.768,0.954-3.018c-0.594-1.097,0.181-1.975,0.241-2.956c0.121-0.212,0.179-0.437,0.172-0.681   c0.956-2.039,0.869-2.225-1.556-3.296c-0.11-0.977-0.141-1.942,0.255-2.875c0.72,0.143,1.441,0.282,2.158,0.42   c0.391-1.508-1.11-1.931-1.48-2.926c-0.45-1.211-0.184-2.51-0.131-3.774l0.003-0.002c0.33-0.646,0.985-0.618,1.567-0.8   c1.427-0.448,1.469-0.604,0.698-2.321c0.01-0.007,0.019-0.014,0.027-0.021v-0.003c-0.112-0.915-0.109-1.836,0.609-2.515   c1.129-1.066,0.159-2.785,1.248-3.858c0.064-0.063-0.168-0.426-0.262-0.648C191.707,140.317,191.657,138.762,191.608,137.203z    M190.133,148.877l-0.027-0.024c-0.002,0-0.002,0-0.002-0.003L190.133,148.877z" fill="#EA622F"/></g><path d="M44.125,36.631l10.172,114.068l45.626,12.67l45.757-12.685l10.194-114.054H44.125z M134.662,63.706  l-0.638,7.092l-0.282,3.137h-0.044H99.996h-0.042H80.205l1.281,14.331h18.468h0.042h28.703h3.768l-0.348,3.752l-3.275,36.831  l-0.216,2.361l-28.632,7.94l-0.058,0.015l-28.66-7.955l-1.957-21.966h6.462h7.579l0.999,11.157l15.577,4.21h0.015l15.605-4.21  l1.622-18.141H99.996h-0.042H68.699l-3.447-38.555l-0.334-3.754h35.036h0.042h35L134.662,63.706z" fill="#FFFFFF"/></svg>