<?xml version="1.0" encoding="iso-8859-1"?>
<!-- Generator: Adobe Illustrator 19.0.0, SVG Export Plug-In . SVG Version: 6.00 Build 0)  -->
<svg version="1.1" id="Capa_1" xmlns="http://www.w3.org/2000/svg" xmlns:xlink="http://www.w3.org/1999/xlink" x="0px" y="0px"
	 viewBox="0 0 474.667 474.667" style="enable-background:new 0 0 474.667 474.667;" xml:space="preserve">
<path style="fill:#A0D92A;" d="M90.667,321.333l-64-24l48-8l-32-72l40,32l24-24v64l40,64c0,0,32-72-8-128s-128-64-128-64
	s-24,88,0,144s104,56,104,56L90.667,321.333z"/>
<path style="fill:#2580A6;" d="M229.667,393.333l-13.8,22.08c-3.6,5.76-4.16,12.24-2.4,17.92H110.509
	c-5.167,19.665,9.512,40,30.934,40h93.224v-80H229.667z"/>
<path style="fill:#20557D;" d="M255.867,433.333c0.64-2,0.96-4.08,0.96-6.24c0-3.92-1.04-7.92-3.36-11.68l-13.8-22.08h-5v80h93.224
	c21.421,0,36.101-20.335,30.934-40H255.867z"/>
<path style="fill:#AEBBC4;" d="M253.466,239.413c9.229,14.766-1.387,33.92-18.8,33.92v64h8v11.036
	c5.866-6.71,14.387-11.036,24-11.036h16c0,17.673-14.327,32-32,32h-8v24h-3l13.8,22.08c2.32,3.76,3.36,7.76,3.36,11.68
	c0,2.16-0.32,4.24-0.96,6.24h102.958c-0.512-1.948-1.15-3.892-2.065-5.807l-66.092-138.193v-96c8.836,0,16-7.164,16-16
	c0-8.837-7.164-16-16-16h-56v48L253.466,239.413z"/>
<path style="fill:#D0DFEA;" d="M215.867,415.413l13.8-22.08h-3v-40h-8c-17.673,0-32-14.327-32-32h16
	c11.814,0,22.019,6.475,27.562,16h4.438v-64c-17.413,0-28.029-19.154-18.8-33.92l18.8-30.08v-48h-56c-8.836,0-16,7.163-16,16
	c0,8.836,7.164,16,16,16v96l-66.092,138.193c-0.916,1.915-1.554,3.858-2.065,5.807h102.958
	C211.707,427.653,212.267,421.173,215.867,415.413z M153.823,420.911l-14.313-7.156l8-16l14.313,7.156L153.823,420.911z
	 M169.823,388.911l-14.313-7.156l16-32l14.313,7.156L169.823,388.911z"/>
<path style="fill:#2580A6;" d="M215.866,239.413c-9.229,14.766,1.387,33.92,18.8,33.92v-64L215.866,239.413z"/>
<path style="fill:#20557D;" d="M253.466,239.413l-18.8-30.08v64C252.08,273.333,262.695,254.18,253.466,239.413z"/>
<polygon style="fill:#D0DFEA;" points="301.01,86.99 289.01,74.99 242.667,121.333 234.667,121.333 234.667,129.333 
	258.667,129.333 "/>
<path style="fill:#20557D;" d="M330.667,49.618l-22.3,22.103l11.982,11.982l26.318-26.085c11.046-11.046,11.046-28.954,0-40
	c-4.478-4.478-10.093-7.045-15.912-7.893C341.701,20.779,341.679,38.605,330.667,49.618z"/>
<polygon style="fill:#FFFFFF;" points="289.01,74.99 277.01,62.99 234.667,105.333 234.667,121.333 242.667,121.333 "/>
<path style="fill:#2580A6;" d="M330.667,49.618c11.013-11.013,11.034-28.839,0.088-39.893c-8.535-1.243-17.52,1.325-24.088,7.893
	l-26.318,26.085l28.018,28.018L330.667,49.618z"/>
<path style="fill:#A0D92A;" d="M346.667,257.614c-48,40-24,95.719-24,95.719l32-31.719l16-48l8,24l56-24l-80,88
	c0,0,36.165,21.863,72-8c48-40,40-112,40-112S394.667,217.614,346.667,257.614z"/>
<g>
	<path style="fill:#F1E200;" d="M250.667,369.333c17.673,0,32-14.327,32-32h-16c-9.613,0-18.134,4.326-24,11.036v20.964H250.667z"/>
	<path style="fill:#F1E200;" d="M230.229,337.333c-5.543-9.525-15.748-16-27.562-16h-16c0,17.673,14.327,32,32,32h8v-16H230.229z"/>
</g>
<path style="fill:#C4B800;" d="M138.667,73.333c-6.916,0-13.322-1.915-18.997-5.003c6.778,12.453,19.821,21.003,34.997,21.003
	c22.091,0,40-17.909,40-40c0-15.176-8.551-28.218-21.003-34.997c3.089,5.675,5.003,12.081,5.003,18.997
	C178.667,55.425,160.758,73.333,138.667,73.333z"/>
<path style="fill:#F1E200;" d="M138.667,73.333c22.091,0,40-17.909,40-40c0-6.916-1.915-13.322-5.003-18.997
	c-5.675-3.089-12.081-5.003-18.997-5.003c-13.146,0-24.708,6.428-32,16.22c-4.961,6.662-8,14.835-8,23.78
	c0,6.916,1.915,13.322,5.003,18.997C125.345,71.419,131.751,73.333,138.667,73.333z M130.667,41.333h16v16h-16V41.333z"/>
<path style="fill:#C4B800;" d="M370.667,169.333c-2.408,0-4.686-0.462-6.878-1.122c2.972,9.878,12.031,17.122,22.878,17.122
	c13.255,0,24-10.745,24-24c0-10.847-7.243-19.906-17.122-22.878c0.66,2.193,1.122,4.471,1.122,6.878
	C394.667,158.588,383.922,169.333,370.667,169.333z"/>
<g>
	<path style="fill:#F1E200;" d="M370.667,169.333c13.255,0,24-10.745,24-24c0-2.408-0.462-4.686-1.122-6.878
		c-2.193-0.66-4.471-1.122-6.878-1.122c-13.255,0-24,10.745-24,24c0,2.408,0.462,4.686,1.122,6.878
		C365.981,168.871,368.259,169.333,370.667,169.333z"/>
	<polygon style="fill:#F1E200;" points="301.01,86.99 317.01,102.99 328.323,91.677 320.348,83.702 308.366,71.721 280.348,43.702 
		272.323,35.677 261.01,46.99 277.01,62.99 289.01,74.99 	"/>
</g>
<polygon style="fill:#1D9942;" points="242.667,369.333 242.667,348.369 242.667,337.333 234.667,337.333 230.229,337.333 
	226.667,337.333 226.667,353.333 226.667,393.333 229.667,393.333 234.667,393.333 239.667,393.333 242.667,393.333 "/>
<g>
	
		<rect x="152.776" y="361.331" transform="matrix(-0.4472 0.8944 -0.8944 -0.4472 577.3275 381.853)" style="fill:#FFFFFF;" width="35.776" height="16"/>
	
		<rect x="141.721" y="401.348" transform="matrix(-0.4472 0.8944 -0.8944 -0.4472 584.1771 457.6537)" style="fill:#FFFFFF;" width="17.888" height="16"/>
</g>
<polygon style="fill:#F1E200;" points="458.667,17.333 458.667,1.333 442.667,1.333 442.667,17.333 426.667,17.333 426.667,33.333 
	442.667,33.333 442.667,49.333 458.667,49.333 458.667,33.333 474.667,33.333 474.667,17.333 "/>
<rect x="130.667" y="41.333" style="fill:#FFFFFF;" width="16" height="16"/>
<polygon style="fill:#F1E200;" points="34.667,97.333 50.667,97.333 50.667,81.333 66.667,81.333 66.667,65.333 50.667,65.333 
	50.667,49.333 34.667,49.333 34.667,65.333 18.667,65.333 18.667,81.333 34.667,81.333 "/>
<g>
</g>
<g>
</g>
<g>
</g>
<g>
</g>
<g>
</g>
<g>
</g>
<g>
</g>
<g>
</g>
<g>
</g>
<g>
</g>
<g>
</g>
<g>
</g>
<g>
</g>
<g>
</g>
<g>
</g>
</svg>
